<svg id="Layer_1" data-name="Layer 1" xmlns="http://www.w3.org/2000/svg" viewBox="0 0 120 80"><defs><style>.cls-1{fill:#2d2a63;}.cls-2{fill:#19f99e;}.cls-3{fill:#fff;}</style></defs><title>logo_template_1</title><rect class="cls-1" width="120" height="80"/><g id="Filled_Icons" data-name="Filled Icons"><path class="cls-2" d="M60,21.5a8,8,0,0,0-8,8c0,8,8,11,8,11s8-3,8-11A8,8,0,0,0,60,21.5ZM58.94,33.41C53.53,33.41,54,28.5,54,28.5,59.92,28.5,58.94,33.41,58.94,33.41Zm2.12,0s-1-4.91,4.91-4.91C66,28.5,66.47,33.41,61.06,33.41Z"/></g><path class="cls-3" d="M39.8,46.74h3.52a1.09,1.09,0,0,1,.8.32,1.1,1.1,0,0,1,.32.79V52.5H43.38V50.56H39.74V52.5H38.68V47.85a1.07,1.07,0,0,1,.33-.79A1,1,0,0,1,39.8,46.74Zm-.06,2.76h3.64V47.85a.05.05,0,0,0-.06-.06H39.8a.05.05,0,0,0-.06.06Z"/><path class="cls-3" d="M49.36,52.5V46.73h1.06v4.71h4.7V52.5Z"/><path class="cls-3" d="M59.68,52.5V46.74h1V52.5Z"/><path class="cls-3" d="M70.74,46.74v1H66.51v1.3h3.41v1H66.51v1.3h4.23V52.5h-5.3V46.74Z"/><path class="cls-3" d="M80.25,51V46.74h1.07V52.5H80.16l-3.55-4.23V52.5h-1V46.74h1.15Z"/><path class="cls-3" d="M48.18,57.08c-.19,0-.34.07-.34.23,0,.38.9.19.89.76,0,.3-.27.43-.56.43a.87.87,0,0,1-.6-.22l.08-.14a.8.8,0,0,0,.52.2c.2,0,.36-.08.36-.25,0-.41-.88-.21-.88-.76,0-.29.25-.42.54-.42a1,1,0,0,1,.49.14l-.08.15A.79.79,0,0,0,48.18,57.08Z"/><path class="cls-3" d="M52.06,57.71a.77.77,0,0,1-.8.79.8.8,0,0,1,0-1.59A.77.77,0,0,1,52.06,57.71Zm-1.39,0a.59.59,0,1,0,.59-.62A.58.58,0,0,0,50.67,57.71Z"/><path class="cls-3" d="M54.19,56.27V58.5H54V56.27Z"/><path class="cls-3" d="M57.65,56.92V58.5h-.2v-.38a.62.62,0,0,1-.61.38.56.56,0,0,1-.6-.61v-1h.21v.92a.42.42,0,0,0,.45.47.55.55,0,0,0,.55-.62v-.77Z"/><path class="cls-3" d="M60.53,58.39a.66.66,0,0,1-.35.11c-.23,0-.39-.13-.39-.44v-.94h-.23V57h.23v-.41H60V57h.51v.16H60V58c0,.2.08.29.22.29a.48.48,0,0,0,.26-.09Z"/><path class="cls-3" d="M62.62,56.47a.13.13,0,0,1-.13.14.14.14,0,0,1,0-.28A.13.13,0,0,1,62.62,56.47Zm0,.45V58.5h-.2V56.92Z"/><path class="cls-3" d="M66.1,57.71a.8.8,0,1,1-.8-.8A.76.76,0,0,1,66.1,57.71Zm-1.39,0a.6.6,0,1,0,.59-.62A.58.58,0,0,0,64.71,57.71Z"/><path class="cls-3" d="M69.45,57.53v1h-.21v-.92a.43.43,0,0,0-.46-.48.55.55,0,0,0-.56.55v.85H68V56.92h.2v.37a.65.65,0,0,1,.62-.38A.57.57,0,0,1,69.45,57.53Z"/><path class="cls-3" d="M71.88,57.08c-.19,0-.34.07-.34.23,0,.38.9.19.89.76,0,.3-.27.43-.57.43a.86.86,0,0,1-.59-.22l.08-.14a.8.8,0,0,0,.52.2c.2,0,.36-.08.36-.25,0-.41-.88-.21-.88-.76,0-.29.25-.42.54-.42a1,1,0,0,1,.49.14l-.08.15A.79.79,0,0,0,71.88,57.08Z"/></svg>